<?xml version="1.0" encoding="UTF-8" standalone="no"?>
<!-- Svg Vector Icons : http://www.onlinewebfonts.com/icon -->

<svg
   version="1.1"
   x="0px"
   y="0px"
   viewBox="0 0 1000 1000"
   enable-background="new 0 0 1000 1000"
   xml:space="preserve"
   id="svg884"
   sodipodi:docname="waka-flame.svg"
   inkscape:version="1.1.2 (0a00cf5339, 2022-02-04)"
   xmlns:inkscape="http://www.inkscape.org/namespaces/inkscape"
   xmlns:sodipodi="http://sodipodi.sourceforge.net/DTD/sodipodi-0.dtd"
   xmlns="http://www.w3.org/2000/svg"
   xmlns:svg="http://www.w3.org/2000/svg"><defs
   id="defs888" /><sodipodi:namedview
   id="namedview886"
   pagecolor="#505050"
   bordercolor="#eeeeee"
   borderopacity="1"
   inkscape:pageshadow="0"
   inkscape:pageopacity="0"
   inkscape:pagecheckerboard="0"
   showgrid="false"
   inkscape:zoom="0.488"
   inkscape:cx="759.22131"
   inkscape:cy="743.85246"
   inkscape:window-width="1366"
   inkscape:window-height="703"
   inkscape:window-x="0"
   inkscape:window-y="0"
   inkscape:window-maximized="1"
   inkscape:current-layer="svg884" />
<metadata
   id="metadata880"> Svg Vector Icons : http://www.onlinewebfonts.com/icon </metadata>
<path
   style="fill:#ff0000;stroke:#111112;stroke-opacity:0"
   d="m 839.82976,490.74282 c 22.2,131.5 -33.4,158 -33.4,158 0,0 50.4,-106.8 -16.9,-211 -26.6,-41.2 -42.9,-102.1 -35.5,-125.6 -32.5,25.5 -45.6,95.7 -45.6,95.7 0,0 -35.7,-72.1 -29.8,-168.3 l -86.2,136.6 c 0,0 2.9,-107.9 -40.2,-155.5 -43.2,-47.6 -121.4,-88.9 -43.2,-212.7000047 0,0 -201.1,116.4000047 -117.2,326.2000047 66.7,166.6 -95.7,42 -36.4,-100.9 0,0 -113.1,31.8 -72.7,212.7 0,0 -67.1,-19.1 -61.8,-98.4 0,0 -53.9,120.6 2.7,244.4 0,0 -62.5,-3.1 -53.6,-111 -122.200003,178.5 -44,506.99995 323.1,506.99995 331.5,0 469.2,-247.69995 346.7,-497.19995 z"
   id="path882" />

<path
   d="m 552.03669,849.56083 c -5.04337,7.08007 -12.60669,11.63632 -21.08224,11.63632 -0.83183,0 -1.65666,-0.0595 -2.47451,-0.14868 -1.4015,-0.17871 -2.16693,-0.30525 -2.92536,-0.48389 -0.94018,-0.23452 -1.63918,-0.45418 -2.3277,-0.70355 -1.32463,-0.49134 -1.91529,-0.74079 -2.4885,-1.01621 -1.34559,-0.69237 -1.82093,-0.95668 -2.29277,-1.2433 -1.28267,-0.83014 -1.6182,-1.07577 -1.95024,-1.32518 -0.5522,-0.41694 -1.10442,-0.84872 -1.63218,-1.31403 -1.03455,-0.91576 -1.39805,-1.27312 -1.75803,-1.63787 -1.09395,-1.15768 -1.79295,-1.98778 -2.45702,-2.8551 -1.25473,-1.68999 -2.2753,-3.33902 -3.15606,-5.09975 l -30.88936,-52.86235 -30.87541,52.86235 c -4.84417,9.39542 -13.6028,15.8278 -23.6651,15.8278 -10.09723,0 -18.89779,-6.48077 -23.59866,-16.08464 L 263.42823,635.59514 c -4.43873,-5.70275 -7.16839,-13.25933 -7.16839,-21.60129 0,-17.65924 12.1873,-31.98692 27.21957,-31.98692 9.72677,0 18.24425,6.01918 23.06044,15.04981 l 113.98455,179.39172 32.08468,-55.64301 c 4.62399,-9.91656 13.59931,-16.65419 23.90625,-16.65419 9.4297,0 17.74444,5.65067 22.62703,14.21974 l 33.09128,57.8504 178.83198,-272.6909 c 4.86164,-8.77379 13.24978,-14.57706 22.81927,-14.57706 15.03228,0 27.21608,14.32021 27.21608,31.97945 0,7.72034 -2.31723,14.79297 -6.18625,20.31335 z"
   fill="#111111"
   stroke="#111111"
   stroke-width="36.0697"
   id="path1012"
   style="stroke:#111112;stroke-opacity:0" /></svg>
